<?xml version="1.0" encoding="UTF-8"?>
<svg id="Layer_1" data-name="Layer 1" xmlns="http://www.w3.org/2000/svg" version="1.1" viewBox="0 0 1258 351">
  <defs>
    <style>
      .cls-1 {
        fill: #fff;
        stroke-width: 0px;
      }
    </style>
  </defs>
  <path class="cls-1" d="M208.5,152.9c29.1,0,52.3,19.3,52.3,49.2s-23.2,49.2-52.3,49.2-52.3-19.3-52.3-49.2,23.2-49.2,52.3-49.2h0ZM208.5,225.9c14.5,0,23.2-9.7,23.2-23.8s-8.7-23.8-23.2-23.8-23.2,9.7-23.2,23.8,8.7,23.8,23.2,23.8Z"/>
  <path class="cls-1" d="M271.5,155.2h29.1v15.1h.4c6.2-11.4,14.3-17.4,27.1-17.4s7,.2,9.7,1v26.5c-4.1-1.1-8.1-1.9-12.4-1.9-22.1,0-24.8,12.7-24.8,31.5v39.2h-29.1v-93.8h0v-.2Z"/>
  <path class="cls-1" d="M347.9,155.2h27.9v12.7h.4c3.9-7.3,13.4-15.1,27.5-15.1,29.4,0,34.9,19.3,34.9,44.4v51.7h-29.1v-46c0-10.8-.2-24.7-15.1-24.7s-17.4,11.8-17.4,23.9v46.7h-29.1v-93.8.2Z"/>
  <path class="cls-1" d="M538.6,232.8c-9.3,11.8-24.6,18.5-39.7,18.5-29.1,0-52.3-19.3-52.3-49.2s23.2-49.2,52.3-49.2,44.1,19.3,44.1,49.2v9.1h-67.4c2.3,11,10.7,18.1,21.9,18.1s15.9-4.8,20.7-11.4l20.3,14.9h.1ZM514,191.5c.2-9.7-7.4-17.8-17.8-17.8s-19.8,8.7-20.5,17.8h38.4-.1Z"/>
  <path class="cls-1" d="M553.3,180.6v-68.2h29.1v136.7h-29.1v-68.5h0Z"/>
  <path class="cls-1" d="M599.4,180.6v-68.2h29.1v136.7h-29.1v-68.5h0Z"/>
  <path class="cls-1" d="M662.6,180.6v-68.2h-12.1v136.7h68v-10.9h-55.9v-57.6Z"/>
  <path class="cls-1" d="M797.1,190.1c0-22.4-13.7-31.9-35.3-31.9s-25.2,4.4-33.6,12.2l6.3,7.4c7.9-6.7,16.9-9.9,27.3-9.9s25.5,6.3,25.5,22v5.8h-13.9c-8.8,0-21.2.7-31.3,4.7-10.1,4.1-17.9,11.4-18,24.9,0,18.7,16,26.1,31.2,26.1s24.5-5.3,31.1-16.6v-.2h1v.3c0,4.9.4,9.8,1.1,14.1h10.2c-1.3-10.1-1.7-20-1.7-37.1v-21.8h.1ZM787.4,210.6c0,7.5-1.6,15.2-6.4,21.1-4.8,5.9-12.7,9.9-25.1,9.9s-20.7-5.7-20.7-16.9,19.7-20.4,39.1-20.4h13.1v6.3h0Z"/>
  <path class="cls-1" d="M862.4,158.2c-13.3,0-28.5,5.6-35.5,17.8v.2h-1v-63.8h-11v136.7h11v-15.6h.9v.2c7.2,12.2,22.4,17.8,35.6,17.8,27.3,0,46.7-19.5,46.7-46.6s-19.4-46.6-46.7-46.6h0ZM862.4,241.6c-21.3,0-37.7-16.6-37.7-36.8s16.4-36.8,37.7-36.8,35.8,16.6,35.8,36.8-13.7,36.8-35.8,36.8Z"/>
  <path class="cls-1" d="M129.3,147.8c-6-7.2-14.7-11.2-25.9-11.2-22.8,0-39.6,18.6-39.6,44.1s16.8,44.1,38.6,44.1,22-5.4,28.2-14.7l25.1,18.7c-11.4,16.2-30.7,23.8-49.4,23.8-42.7,0-73.8-28-73.8-71.9s31.1-71.9,73.8-71.9,34.6,5.2,46.2,20.1l-23.2,18.9h0Z"/>
  <path class="cls-1" d="M1138.1,75.9c3.6,0,6.6-2.9,6.6-6.6s-2.9-6.6-6.6-6.6-6.6,2.9-6.6,6.6,2.9,6.6,6.6,6.6M1173.5,72.2c14.4,1.4,51.3,11,51.3,11,0,0,2,1.6.4,1.6h-63l-80.3,59.2c.9-5.6,3.8-21.2,19.6-31.3,15.4-9.9,69.4-39.1,71.9-40.5h0c0,0,0,0,0,0h0ZM1051.9,194.9v-29.6c0-12.5-5.1-21.1-16.6-29.3l-49-34.6c-5.5,6-8.9,14.2-8.9,23.1s5.3,21.1,13.7,27.4l60.8,43ZM1107.8,73.3l-35.3,19.6v13.9l54.9-32.1-19.5-1.4ZM897.1,70.2l59.8,41.4c5.6-24.3,26.4-41.4,51.2-41.4h-111ZM1166.4,65.2s-55.5,29.6-71.9,40.6c-18,12.2-22.3,30.2-22.3,43.9v157c-1.5,0-2.9,0-4.4,0-20,0-35.2.1-63.6-16.4-30.4-17.8-49.1-48.6-49.1-84v-79.2l-81.7-56.5.2-.2h-86.1c-14.6,0-27.2-6.5-27.2-14.9h311.2s18.9-11.2,46.6-11.2,38.8,10.4,48.3,20.9"/>
</svg>