<?xml version="1.0" encoding="UTF-8"?>
<svg id="Layer_1" data-name="Layer 1" xmlns="http://www.w3.org/2000/svg" version="1.1" viewBox="0 0 1258 351">
  <defs>
    <style>
      .cls-1 {
        fill: #fff;
        stroke-width: 0px;
      }
    </style>
  </defs>
  <g>
    <path class="cls-1" d="M127.4,147c-6-7.2-14.8-11.3-26.1-11.3-23,0-39.9,18.7-39.9,44.4s16.9,44.4,38.9,44.4,22.2-5.5,28.4-14.8l25.3,18.9c-11.5,16.4-30.9,23.9-49.8,23.9-43,0-74.3-28.2-74.3-72.4s31.3-72.4,74.3-72.4,34.8,5.3,46.5,20.2l-23.3,19.1h0Z"/>
    <path class="cls-1" d="M206.7,225.7c14.6,0,23.3-9.7,23.3-24s-8.8-24-23.3-24-23.3,9.7-23.3,24,8.8,24,23.3,24ZM206.7,152.1c29.2,0,52.5,19.5,52.5,49.6s-23.3,49.7-52.5,49.7-52.5-19.5-52.5-49.7,23.3-49.6,52.5-49.6Z"/>
    <path class="cls-1" d="M270,154.4h29.2v15.2h.4c6.2-11.5,14.4-17.5,27.2-17.5s7,.2,9.7,1v26.7c-4.1-1.2-8.2-2-12.5-2-22.2,0-24.9,12.9-24.9,31.7v39.5h-29.2v-94.6h0Z"/>
    <path class="cls-1" d="M346.7,154.4h28v12.8h.4c3.9-7.4,13.4-15.2,27.6-15.2,29.6,0,35,19.5,35,44.8v52.2h-29.2v-46.3c0-10.9-.2-24.9-15.2-24.9s-17.5,11.9-17.5,24.1v47.1h-29.2v-94.6Z"/>
    <path class="cls-1" d="M513.5,191c.2-9.7-7.4-17.9-17.9-17.9s-19.8,8.8-20.6,17.9h38.5ZM538.2,232.7c-9.3,11.9-24.7,18.7-39.9,18.7-29.2,0-52.5-19.5-52.5-49.6s23.3-49.6,52.5-49.6,44.3,19.5,44.3,49.6v9.1h-67.7c2.3,11.1,10.7,18.3,22,18.3s16-4.9,20.8-11.5l20.4,15h0Z"/>
    <polygon class="cls-1" points="553 180 553 111.2 582.2 111.2 582.2 249 553 249 553 180"/>
    <polygon class="cls-1" points="599.3 180 599.3 111.2 628.5 111.2 628.5 249 599.3 249 599.3 180"/>
  </g>
  <path class="cls-1" d="M662.6,180.6v-68.2h-12.1v136.7h68v-10.9h-55.9v-57.6Z"/>
  <path class="cls-1" d="M797.1,190.1c0-22.4-13.7-31.9-35.3-31.9s-25.2,4.4-33.6,12.2l6.3,7.4c7.9-6.7,16.9-9.9,27.3-9.9s25.5,6.3,25.5,22v5.8h-13.9c-8.8,0-21.2.7-31.3,4.7-10.1,4.1-17.9,11.4-18,24.9,0,18.7,16,26.1,31.2,26.1s24.5-5.3,31.1-16.6v-.2h1v.3c0,4.9.4,9.8,1.1,14.1h10.2c-1.3-10.1-1.7-20-1.7-37.1v-21.8h.1ZM787.4,210.6c0,7.5-1.6,15.2-6.4,21.1-4.8,5.9-12.7,9.9-25.1,9.9s-20.7-5.7-20.7-16.9,19.7-20.4,39.1-20.4h13.1v6.3h0Z"/>
  <path class="cls-1" d="M862.4,158.2c-13.3,0-28.5,5.6-35.5,17.8v.2h-1v-63.8h-11v136.7h11v-15.6h.9v.2c7.2,12.2,22.4,17.8,35.6,17.8,27.3,0,46.7-19.5,46.7-46.6s-19.4-46.6-46.7-46.6h0ZM862.4,241.6c-21.3,0-37.7-16.6-37.7-36.8s16.4-36.8,37.7-36.8,35.8,16.6,35.8,36.8-13.7,36.8-35.8,36.8Z"/>
  <path class="cls-1" d="M1138.1,75.9c3.6,0,6.6-2.9,6.6-6.6s-2.9-6.6-6.6-6.6-6.6,2.9-6.6,6.6,2.9,6.6,6.6,6.6M1173.5,72.2c14.4,1.4,51.3,11,51.3,11,0,0,2,1.6.4,1.6h-63l-80.3,59.2c.9-5.6,3.8-21.2,19.6-31.3,15.4-9.9,69.4-39.1,71.9-40.5h0ZM1051.9,194.9v-29.6c0-12.5-5.1-21.1-16.6-29.3l-49-34.6c-5.5,6-8.9,14.2-8.9,23.1s5.3,21.1,13.7,27.4l60.8,43h0ZM1107.8,73.3l-35.3,19.6v13.9l54.9-32.1-19.5-1.4h0ZM897.1,70.2l59.8,41.4c5.6-24.3,26.4-41.4,51.2-41.4h-111ZM1166.4,65.2s-55.5,29.6-71.9,40.6c-18,12.2-22.3,30.2-22.3,43.9v157h-4.4c-20,0-35.2.1-63.6-16.4-30.4-17.8-49.1-48.6-49.1-84v-79.2l-81.7-56.5.2-.2h-86.1c-14.6,0-27.2-6.5-27.2-14.9h311.2s18.9-11.2,46.6-11.2,38.8,10.4,48.3,20.9"/>
</svg>